<?xml version="1.0" encoding="utf-8"?>
<!-- Generator: Adobe Illustrator 22.1.0, SVG Export Plug-In . SVG Version: 6.00 Build 0)  -->
<svg version="1.1" id="Layer_1" xmlns="http://www.w3.org/2000/svg" xmlns:xlink="http://www.w3.org/1999/xlink" x="0px" y="0px"
	 viewBox="0 0 659.2 594.7" style="enable-background:new 0 0 659.2 594.7;" xml:space="preserve">
<style type="text/css">
	.st0{fill:#0D3ECC;}
</style>
<title>MB_ICON_0022cc</title>
<path class="st0" d="M659.2,265.1c0.1-104.6-49.5-203-133.7-265.1L329.6,195.9L133.7,0C52.6,60,0,156.4,0,265v0.2
	c0,179.6,143.7,325.7,322.4,329.5h0.7c3.7-0.1,6.5-3.2,6.4-6.9c-0.1-3.1-2.4-5.7-5.4-6.3c-0.4,0-0.8-0.1-1.3-0.1
	c-14.8-1.5-29.2-3.9-43-8.3c-90.1-27.5-141-122.8-113.5-212.9c7.3-24.1,19.9-46.2,36.8-64.9l126.5,126.3l126.3-126.3
	c59.2,65.3,58.9,164.8-0.6,229.8c-1.1,1.2-1.8,2.8-1.9,4.4c-0.4,4.3,4.5,7.7,7.8,6.5C667.4,462.2,659.2,265.1,659.2,265.1z"/>
</svg>
